<svg xmlns="http://www.w3.org/2000/svg" viewBox="0 0 34.7 31.96"><defs><style>.a{fill:#1a1a1a;}</style></defs><title>aquisition</title><path class="a" d="M40.54,21.55a4.54,4.54,0,0,0-3.23-1.33h0a4.57,4.57,0,0,0-4.5,3.92H24.36l-8.78-8.32a4.56,4.56,0,0,0-3.83-7h0a4.57,4.57,0,0,0,0,9.13,4.49,4.49,0,0,0,3-1.15l8.44,8-8.44,8a4.49,4.49,0,0,0-3-1.15,4.57,4.57,0,1,0,4.57,4.57,4.5,4.5,0,0,0-.73-2.46l8.78-8.32h8.45a4.56,4.56,0,1,0,7.73-3.87ZM8.47,13.36a3.29,3.29,0,0,1,3.27-3.28h0a3.28,3.28,0,1,1-3.28,3.28Zm3.27,26.12A3.28,3.28,0,1,1,15,36.2,3.28,3.28,0,0,1,11.74,39.48ZM37.31,28.06a3.28,3.28,0,0,1,0-6.56h0a3.28,3.28,0,0,1,0,6.56Z" transform="translate(-7.18 -8.8)"/></svg>