<svg xmlns="http://www.w3.org/2000/svg" viewBox="0 0 43.3 27.5"><defs><style>.a{fill:#1a1a1a;}</style></defs><title>campaigns</title><path class="a" d="M41,23.83a4.95,4.95,0,1,0-5.67,0,8.51,8.51,0,0,0-2.92,1.72,11.13,11.13,0,0,0-4-2.19,6.26,6.26,0,1,0-6.48,0,11.15,11.15,0,0,0-4,2.16,8.64,8.64,0,0,0-2.89-1.68,4.95,4.95,0,1,0-5.67,0A8.68,8.68,0,0,0,3.57,32v.57a0,0,0,0,0,0,0H14.09a11.51,11.51,0,0,0-.1,1.45v.58a4.56,4.56,0,0,0,4.56,4.56H31.83a4.56,4.56,0,0,0,4.56-4.56v-.58a11.51,11.51,0,0,0-.1-1.45H46.84a0,0,0,0,0,0,0V32A8.72,8.72,0,0,0,41,23.83Zm-6.41-4a3.58,3.58,0,1,1,3.65,3.57h-.14A3.57,3.57,0,0,1,34.61,19.78ZM20.27,18a4.9,4.9,0,1,1,5.18,4.88h-.57A4.9,4.9,0,0,1,20.27,18ZM8.65,19.78a3.58,3.58,0,1,1,3.64,3.57h-.13A3.57,3.57,0,0,1,8.65,19.78Zm5.68,11.48H5a7.33,7.33,0,0,1,7.21-6.54h.11A7.26,7.26,0,0,1,17,26.46,11.23,11.23,0,0,0,14.33,31.26ZM35,34.67a3.19,3.19,0,0,1-3.19,3.19H18.53a3.2,3.2,0,0,1-3.19-3.19v-.58a9.85,9.85,0,0,1,9.54-9.83h.58A9.85,9.85,0,0,1,35,34.09Zm1-3.41a11.16,11.16,0,0,0-2.6-4.76,7.31,7.31,0,0,1,4.72-1.78h.1a7.32,7.32,0,0,1,7.21,6.54Z" transform="translate(-3.57 -11.74)"/></svg>