<svg xmlns="http://www.w3.org/2000/svg" xmlns:xlink="http://www.w3.org/1999/xlink" viewBox="0 0 170.77 176.7">
    <defs>
        <style>.a{fill:url(#a);}</style>
        <linearGradient id="a" x1="15.23" y1="100" x2="185.99" y2="100" gradientUnits="userSpaceOnUse">
        <stop offset="0" stop-color="#2eadb9"/>
        <stop offset="1" stop-color="#2a80af"/>
        </linearGradient>
    </defs>
    <title>eikon-logo-browser</title>
    <path class="a" d="M15.52,106.61c-.14-2.14-.29-4.27-.29-6.45a91.35,91.35,0,0,1,6.71-35.28,86.43,86.43,0,0,1,18.34-28,85.24,85.24,0,0,1,27.16-18.5,82.81,82.81,0,0,1,33.17-6.71,93.82,93.82,0,0,1,11.22.74A15.83,15.83,0,0,0,110,13C90,55.29,73.85,79.37,43.12,93.64ZM118,30.21,164.92,131.3c-37.43-8.3-61-11.92-89-2.52L62.64,100.17C87.71,85,100.05,64.46,118,30.21Zm61.3,33.65a94.68,94.68,0,0,1,6.71,36.3,90.94,90.94,0,0,1-5.11,30.4,15.25,15.25,0,0,0-.62-1.75l-18.9-40.69a14.95,14.95,0,0,0,7.27-19.86A14.94,14.94,0,0,0,148.77,61h0l-18.9-40.7a14.17,14.17,0,0,0-4-5.14A82.65,82.65,0,0,1,133.94,18a80.65,80.65,0,0,1,27.08,18A84.84,84.84,0,0,1,179.28,63.86Zm-7,84.64a83.59,83.59,0,0,1-38.37,33.06,82.27,82.27,0,0,1-33.33,6.79,81.86,81.86,0,0,1-33.17-6.79A86.25,86.25,0,0,1,40.28,163c-.42-.43-.78-.9-1.19-1.34L69,148.07l.39-.18C100.17,133.19,131.8,137.79,172.31,148.5Z" transform="translate(-15.23 -11.65)"/>
</svg>