<svg xmlns="http://www.w3.org/2000/svg" xmlns:xlink="http://www.w3.org/1999/xlink" viewBox="0 0 208.5 60.01">
    <defs>
        <style>.a{fill:url(#a);}</style>
        <linearGradient id="a" x1="4.48" y1="34.09" x2="212.98" y2="34.09" gradientUnits="userSpaceOnUse">
        <stop offset="0" stop-color="#2eadb9"/>
        <stop offset="1" stop-color="#2a80af"/>
        </linearGradient>
    </defs>
    <title>eikon-logo</title>
    <path class="a" d="M37.54,36.84l7.36-9.41a23.61,23.61,0,0,0-4-3.9,21.45,21.45,0,0,0-7.81-3.91,21.94,21.94,0,0,0-16.64,2.23,23.48,23.48,0,0,0-6.95,6.08l0,0a23.13,23.13,0,0,0-4.18,8.16A22.09,22.09,0,0,0,7.2,52.81,20.87,20.87,0,0,0,9,55.52a21.43,21.43,0,0,0,3.91,3.94A21.65,21.65,0,0,0,29.18,63.9a22.43,22.43,0,0,0,8.15-2.78,22.19,22.19,0,0,0,4.49-3.34L35,49a12.32,12.32,0,0,1-3.07,2.57A11.09,11.09,0,0,1,27.74,53a10.24,10.24,0,0,1-2.82,0l6.33-8.09Zm-15,1.26-6.26,8a11,11,0,0,1-.64-2.77A11.85,11.85,0,0,1,16.12,39a12.32,12.32,0,0,1,2.19-4.17s0,0,0,0a13.17,13.17,0,0,1,3.61-3.24,11.25,11.25,0,0,1,4.11-1.5,10.1,10.1,0,0,1,2.8,0ZM119.7,43c0-.55-.08-1.09-.08-1.66a23.57,23.57,0,0,1,1.73-9.08,22.37,22.37,0,0,1,4.72-7.22,22,22,0,0,1,7-4.76,21.3,21.3,0,0,1,8.54-1.73,24.9,24.9,0,0,1,2.89.19A3.75,3.75,0,0,0,144,19C138.89,29.83,134.72,36,126.8,39.71ZM53.36,18.87h11V64.09h-11Zm92.72,4.5,12.09,26c-9.64-2.13-15.7-3.07-22.92-.65l-3.42-7.36C138.29,37.48,141.47,32.19,146.08,23.37Zm66.9,17V64.09H202V40.4a23.67,23.67,0,0,0-.61-5.48,8.3,8.3,0,0,0-1.77-2.62,8.21,8.21,0,0,0-2.6-1.77,8.05,8.05,0,0,0-3.17-.64,8.45,8.45,0,0,0-3.25.64,8.26,8.26,0,0,0-4.41,4.39,23.69,23.69,0,0,0-.67,5.48V64.09H174.62l0-45.22h3.06l3.61,4.64a19.26,19.26,0,0,1,5.58-3.34,19.06,19.06,0,0,1,7-1.3,18.6,18.6,0,0,1,7.42,1.5,19.25,19.25,0,0,1,6.09,4.13,19.47,19.47,0,0,1,4.11,6.14C212.51,33,213,37.76,213,40.4ZM161.87,32a24.36,24.36,0,0,1,1.73,9.34,23.4,23.4,0,0,1-1.32,7.83,4,4,0,0,0-.16-.45l-4.87-10.47a3.84,3.84,0,0,0-.3-7.11,3.67,3.67,0,0,0-2.94.12h0l-4.87-10.48a3.58,3.58,0,0,0-1-1.32,19.09,19.09,0,0,1,2.09.72,21,21,0,0,1,7,4.62A22,22,0,0,1,161.87,32ZM64.38,9.6a5.51,5.51,0,1,1-5.51-5.52A5.51,5.51,0,0,1,64.38,9.6Zm95.69,44.23a21.17,21.17,0,0,1-2.9,3.73,22,22,0,0,1-7,4.79,21.93,21.93,0,0,1-17.12,0,22.24,22.24,0,0,1-7-4.79l-.3-.34,7.7-3.5.1,0C141.49,49.89,149.64,51.08,160.07,53.83ZM101,38.87l14.37,25.22H102.75l-9-16-7.37,9.48v6.54h-11V4.29h3.06l8,10.38v26.6l17.42-22.4h12.68Z" transform="translate(-4.48 -4.08)"/>
</svg>