<svg xmlns="http://www.w3.org/2000/svg" viewBox="0 0 31.26 30.7"><defs><style>.a{fill:#1a1a1a;}</style></defs><title>logout</title><path class="a" d="M9.6,13v23.8a3.47,3.47,0,0,0,3.46,3.45H28.21a3.46,3.46,0,0,0,3.45-3.45V29.58A.68.68,0,0,0,31,28.9a.69.69,0,0,0-.69.68v7.24a2.1,2.1,0,0,1-2.09,2.09H13.06A2.1,2.1,0,0,1,11,36.82V13a2.1,2.1,0,0,1,2.09-2.09H28.21A2.1,2.1,0,0,1,30.3,13v7.23a.68.68,0,0,0,.68.69.69.69,0,0,0,.69-.69V13a3.46,3.46,0,0,0-3.46-3.45H13.06A3.46,3.46,0,0,0,9.6,13Z" transform="translate(-9.6 -9.57)"/><path class="a" d="M35,30.06a.69.69,0,0,0,.48.2.71.71,0,0,0,.49-.2l4.66-4.66a.67.67,0,0,0,0-1L36,19.77a.68.68,0,1,0-1,1l3.5,3.51H20.76a.68.68,0,1,0,0,1.36H38.53L35,29.11A.66.66,0,0,0,35,30.06Z" transform="translate(-9.6 -9.57)"/></svg>