<svg xmlns="http://www.w3.org/2000/svg" viewBox="0 0 30.15 38.2"><defs><style>.a{fill:#1a1a1a;}</style></defs><title>notification</title><path class="a" d="M25.29,44.05a4.89,4.89,0,0,1-4.89-4.89.7.7,0,0,1,.7-.7h8.37a.7.7,0,0,1,.7.7A4.89,4.89,0,0,1,25.29,44.05Zm-3.42-4.19a3.49,3.49,0,0,0,6.83,0Z" transform="translate(-10.21 -5.85)"/><path class="a" d="M25.29,7.25a2.56,2.56,0,0,1,2.56,2.57V11c4.9,1.16,7.69,5.54,7.69,10.8v8.55L39,33.74v1.71H11.61V33.74L15,30.33V21.78c0-5.26,2.8-9.64,7.69-10.8V9.82a2.57,2.57,0,0,1,2.57-2.57m0-1.4a4,4,0,0,0-4,4v.11c-4.71,1.62-7.69,6.15-7.69,11.85v8l-3,3a1.43,1.43,0,0,0-.41,1v1.71a1.4,1.4,0,0,0,1.4,1.4H39a1.4,1.4,0,0,0,1.4-1.4V33.74a1.43,1.43,0,0,0-.41-1l-3-3v-8c0-5.7-3-10.23-7.69-11.85V9.82a4,4,0,0,0-4-4Z" transform="translate(-10.21 -5.85)"/></svg>