<svg xmlns="http://www.w3.org/2000/svg" viewBox="0 0 32.4 32.4"><defs><style>.a{fill:#1a1a1a;}</style></defs><title>realtime</title><path class="a" d="M25.22,8.57a16.2,16.2,0,1,0,16.2,16.2A16.2,16.2,0,0,0,25.22,8.57Zm.7,31V36.7a.7.7,0,1,0-1.39,0v2.84A14.8,14.8,0,0,1,10.45,25.46H13.3a.7.7,0,0,0,0-1.39H10.45A14.81,14.81,0,0,1,24.53,10v2.85a.7.7,0,1,0,1.39,0V10A14.81,14.81,0,0,1,40,24.07H37.15a.7.7,0,1,0,0,1.39H40A14.81,14.81,0,0,1,25.92,39.54Z" transform="translate(-9.02 -8.57)"/><path class="a" d="M32.67,31.9,26,25.08V18a.7.7,0,0,0-1.4,0v7.38a.7.7,0,0,0,.2.49l6.91,7a.69.69,0,0,0,1,0A.7.7,0,0,0,32.67,31.9Z" transform="translate(-9.02 -8.57)"/></svg>