<svg xmlns="http://www.w3.org/2000/svg" viewBox="0 0 35.68 35.68"><defs><style>.a{fill:#1a1a1a;}</style></defs><title>setting</title><path class="a" d="M25.15,8.14A15,15,0,0,1,27,8.25a.91.91,0,0,1,.81,1,3.65,3.65,0,0,0,2.22,3.57A3.53,3.53,0,0,0,31.4,13a3.77,3.77,0,0,0,2.77-1.18.92.92,0,0,1,1.25-.1A16.18,16.18,0,0,1,38,14.38a.9.9,0,0,1-.1,1.24,3.63,3.63,0,0,0,2.49,6.32,1.09,1.09,0,0,1,1.06.81,17.32,17.32,0,0,1,0,3.74.92.92,0,0,1-.9.81h-.27a3.69,3.69,0,0,0-3.36,2.23,3.63,3.63,0,0,0,.92,4.1.92.92,0,0,1,.1,1.25,16.14,16.14,0,0,1-2.66,2.63.9.9,0,0,1-1.24-.1,3.81,3.81,0,0,0-2.77-1.18,3.34,3.34,0,0,0-1.3.25A3.64,3.64,0,0,0,27.73,40a.92.92,0,0,1-.82.94,15.51,15.51,0,0,1-1.8.1,17.15,17.15,0,0,1-1.9-.11.91.91,0,0,1-.8-1,3.66,3.66,0,0,0-2.23-3.57,3.49,3.49,0,0,0-1.32-.26,3.83,3.83,0,0,0-2.78,1.18.91.91,0,0,1-.68.3.88.88,0,0,1-.57-.2,16.17,16.17,0,0,1-2.6-2.63.91.91,0,0,1,.1-1.24A3.63,3.63,0,0,0,10,27.21H9.87a1.08,1.08,0,0,1-1.08-.81,16.13,16.13,0,0,1,0-3.74.88.88,0,0,1,.91-.8h0a3.79,3.79,0,0,0,3.57-2.22,3.64,3.64,0,0,0-.92-4.11.91.91,0,0,1-.09-1.25A16.15,16.15,0,0,1,15,11.65a.88.88,0,0,1,.56-.19.91.91,0,0,1,.68.3A3.8,3.8,0,0,0,19,12.93a3.38,3.38,0,0,0,1.3-.25,3.65,3.65,0,0,0,2.25-3.5.91.91,0,0,1,.81-.94,15.56,15.56,0,0,1,1.81-.1m0,22a5.49,5.49,0,1,0-5.48-5.49,5.49,5.49,0,0,0,5.48,5.49m0-23.36h0a18.11,18.11,0,0,0-2,.1,2.33,2.33,0,0,0-2.06,2.38,2.26,2.26,0,0,1-1.38,2.17,2.11,2.11,0,0,1-.77.14,2.4,2.4,0,0,1-1.74-.71,2.3,2.3,0,0,0-3.13-.27,17.44,17.44,0,0,0-2.9,2.86,2.32,2.32,0,0,0,.25,3.16A2.22,2.22,0,0,1,12,19.09a2.41,2.41,0,0,1-2.28,1.37h0a2.3,2.3,0,0,0-2.33,2,17.78,17.78,0,0,0,0,4.06,2.47,2.47,0,0,0,2.47,2.05H10A2.23,2.23,0,0,1,12,30a2.26,2.26,0,0,1-.57,2.5,2.33,2.33,0,0,0-.26,3.14A18.1,18.1,0,0,0,14,38.49,2.33,2.33,0,0,0,15.4,39a2.3,2.3,0,0,0,1.72-.76,2.41,2.41,0,0,1,1.74-.72,2,2,0,0,1,.78.15A2.26,2.26,0,0,1,21,39.87a2.31,2.31,0,0,0,2,2.43,17.66,17.66,0,0,0,2.06.12,18.39,18.39,0,0,0,2-.11,2.33,2.33,0,0,0,2.06-2.38,2.24,2.24,0,0,1,1.38-2.16,1.89,1.89,0,0,1,.77-.15,2.39,2.39,0,0,1,1.73.72,2.3,2.3,0,0,0,3.13.27A17.44,17.44,0,0,0,39,35.75a2.32,2.32,0,0,0-.25-3.17,2.23,2.23,0,0,1-.57-2.52,2.27,2.27,0,0,1,2.07-1.37h.27a2.31,2.31,0,0,0,2.29-2,17.78,17.78,0,0,0,0-4.06,2.48,2.48,0,0,0-2.45-2.06,2.23,2.23,0,0,1-1.54-3.88,2.32,2.32,0,0,0,.25-3.14,17.4,17.4,0,0,0-2.83-2.86,2.28,2.28,0,0,0-1.44-.51,2.3,2.3,0,0,0-1.72.77,2.38,2.38,0,0,1-1.73.71,2,2,0,0,1-.79-.15,2.23,2.23,0,0,1-1.36-2.19A2.32,2.32,0,0,0,27.2,6.86a17.62,17.62,0,0,0-2.05-.12Zm0,22a4.09,4.09,0,1,1,4.09-4.09,4.09,4.09,0,0,1-4.09,4.09Z" transform="translate(-7.29 -6.74)"/></svg>